<svg id="925538bc-5f6e-405e-b73b-e863e3776f09" data-name="Layer 1" xmlns="http://www.w3.org/2000/svg" xmlns:xlink="http://www.w3.org/1999/xlink" viewBox="0 0 285 225"><defs><style>.f95672c7-cf4a-4dcd-92dc-b57538e0e07d{fill:url(#b6d92bb9-7de1-4f48-a665-36ee3da66177);}.\34 8c50727-0541-4d89-9c13-a13904004fc6{fill:#fff;}</style><linearGradient id="b6d92bb9-7de1-4f48-a665-36ee3da66177" x1="48.75" y1="33.25" x2="288.75" y2="273.25" gradientUnits="userSpaceOnUse"><stop offset="0" stop-color="#69edff"/><stop offset="1" stop-color="#ad7efd"/></linearGradient></defs><title>Freeland Logo Fa</title><path class="f95672c7-cf4a-4dcd-92dc-b57538e0e07d" d="M337.5,149.5v75h-60v30h-105v-30H52.5v-75h75v-30h75v30h75v-30h45v30Zm-285-120v30h15v-15h15v-15Zm45,15v30h15v-15h15v-15Zm-45,30v30h15v-15h15v-15Zm45,15v30h15v-15h15v-15Z" transform="translate(-52.5 -29.5)"/><g id="89c7298a-3685-4da7-8c7c-99c638013cb0" data-name="Freeland"><rect class="48c50727-0541-4d89-9c13-a13904004fc6" x="90" y="105" width="15" height="15"/><rect class="48c50727-0541-4d89-9c13-a13904004fc6" x="240" y="105" width="15" height="15"/><polygon class="48c50727-0541-4d89-9c13-a13904004fc6" points="165 165 135 165 135 105 120 105 120 165 105 165 105 135 90 135 90 165 60 165 60 135 15 135 15 150 45 150 45 165 15 165 15 180 180 180 180 135 165 135 165 165"/><path class="48c50727-0541-4d89-9c13-a13904004fc6" d="M277.5,164.5v30h-15v-30h-15v75h15v-30h60v-45Zm30,30h-15v-15h15Z" transform="translate(-52.5 -29.5)"/><rect class="48c50727-0541-4d89-9c13-a13904004fc6" x="135" y="195" width="45" height="15"/></g></svg>