<svg width="3498" height="656" viewBox="0 0 3498 656" fill="none" xmlns="http://www.w3.org/2000/svg">
<path d="M3037.87 0.462848C2985.95 0.462848 2936.6 21.1175 2899.91 57.8055C2863.22 94.4948 2842.57 143.84 2842.57 195.767V460.235C2842.57 512.16 2863.22 561.505 2899.91 598.191C2936.6 634.88 2985.94 655.539 3037.87 655.539H3302.34C3354.27 655.539 3403.61 634.88 3440.3 598.191C3476.99 561.505 3497.64 512.16 3497.64 460.235V195.767C3497.64 143.84 3476.99 94.4921 3440.3 57.8055C3403.61 21.1175 3354.26 0.462848 3302.34 0.462848H3037.87ZM2946.87 551.229C2922.67 527.025 2908.99 494.5 2908.99 460.235V195.767C2908.99 161.507 2922.68 128.972 2946.87 104.771C2971.07 80.5695 3003.61 66.892 3037.87 66.892H3302.34C3336.6 66.892 3369.13 80.5695 3393.33 104.771C3417.53 128.972 3431.21 161.504 3431.21 195.767V460.235C3431.21 494.5 3417.53 527.025 3393.33 551.229C3369.13 575.429 3336.6 589.107 3302.34 589.107H3037.87C3003.61 589.107 2971.07 575.429 2946.87 551.229Z" fill="url(#paint0_linear)"/>
<path d="M2986.46 221.211C2980.38 221.211 2975.42 226.287 2975.42 232.512V276.34C2975.42 282.556 2980.39 287.64 2986.46 287.64C3109.16 287.64 3231.85 287.64 3354.55 287.64C3360.61 287.64 3365.58 282.556 3365.58 276.34V232.512C3365.58 226.287 3360.63 221.211 3354.55 221.211C3231.85 221.211 3109.16 221.211 2986.46 221.211Z" fill="url(#paint1_linear)"/>
<path d="M3038.14 401.787L3006.35 420.055C3004.1 421.347 3002.63 423.288 3002.01 425.805C3001.38 428.325 3001.76 430.724 3003.15 432.917C3026.65 470.285 3056.96 496.456 3099.18 510.524C3134.87 522.419 3168.35 523.759 3205.65 523.879C3208.18 523.879 3210.38 522.981 3212.18 521.196C3213.97 519.411 3214.88 517.209 3214.88 514.684V477.816C3214.88 472.772 3210.76 468.631 3205.71 468.623C3175.26 468.563 3145.48 467.961 3116.44 458.289C3087.5 448.645 3066.77 430.185 3050.46 404.791C3048.71 402.064 3045.75 400.561 3042.72 400.561C3041.16 400.561 3039.58 400.957 3038.14 401.787" fill="url(#paint2_linear)"/>
<path fill-rule="evenodd" clip-rule="evenodd" d="M1574.79 491.255H1817.18C1822.2 491.255 1826.32 495.371 1826.32 500.399V559.143C1826.32 564.171 1822.2 568.286 1817.18 568.286H1574.79C1569.76 568.286 1565.64 564.171 1565.64 559.143V500.399C1565.64 495.371 1569.76 491.255 1574.79 491.255Z" fill="#2B2A29"/>
<path fill-rule="evenodd" clip-rule="evenodd" d="M874.758 75.4505V129.076C874.758 179.708 916.076 221.103 966.789 221.103H1135.72C1139.22 221.103 1142.09 218.228 1142.09 214.735V150.44C1142.09 146.959 1139.2 144.069 1135.72 144.069H966.789C958.357 144.069 951.792 137.393 951.792 129.076V75.4505C951.792 71.9652 948.908 69.0839 945.424 69.0839H881.126C877.637 69.0839 874.758 71.9599 874.758 75.4505Z" fill="#2B2A29"/>
<path fill-rule="evenodd" clip-rule="evenodd" d="M2483.43 646.787C2483.43 650.285 2486.3 653.155 2489.8 653.155H2554.09C2557.59 653.155 2560.46 650.285 2560.46 646.787V584.349C2560.46 575.959 2567.03 569.352 2575.46 569.352H2730.47C2733.97 569.352 2736.84 566.481 2736.84 562.983V498.687C2736.84 495.193 2733.95 492.317 2730.47 492.317H2575.46C2524.71 492.317 2483.43 533.736 2483.43 584.349V646.787Z" fill="#2B2A29"/>
<path fill-rule="evenodd" clip-rule="evenodd" d="M1837.83 144.063C1834.35 144.063 1831.47 146.956 1831.47 150.433V214.74C1831.47 218.212 1834.36 221.103 1837.83 221.103H1902.14C1905.63 221.103 1908.51 218.227 1908.51 214.74V150.433C1908.51 146.951 1905.62 144.063 1902.14 144.063H1837.83Z" fill="#2B2A29"/>
<path fill-rule="evenodd" clip-rule="evenodd" d="M2088.47 227.049C2088.47 222.896 2085 219.425 2080.85 219.425H2009.17C2004.99 219.425 2001.54 222.874 2001.54 227.054C2001.54 274.865 1963.02 313.42 1915.17 313.42H869.667C821.841 313.42 783.291 274.9 783.291 227.054V9.57025C783.291 5.40625 779.829 1.94489 775.665 1.94489H703.983C699.816 1.94489 696.361 5.40359 696.361 9.57025V227.054C696.361 322.548 774.084 400.35 869.667 400.35H1915.17C2010.77 400.35 2088.47 322.552 2088.47 227.049Z" fill="#2B2A29"/>
<path fill-rule="evenodd" clip-rule="evenodd" d="M2567.3 400.94C2662.67 400.94 2740.19 323.327 2740.19 228.051C2740.19 223.908 2736.73 220.443 2732.59 220.443H2661.07C2656.9 220.443 2653.47 223.884 2653.47 228.056C2653.47 275.742 2615.04 314.216 2567.3 314.216C2538.28 314.214 2464.17 313.946 2435.17 313.946C2435.17 284.138 2437.88 255.762 2427.53 226.49C2414.44 189.44 2385.07 160.075 2348.02 146.979C2280.77 123.21 2205.73 158.164 2181.58 226.49C2176.83 239.927 2174.22 254.374 2174.16 269.422C2174.13 284.455 2176.57 299.239 2181.58 313.419C2194.68 350.468 2224.04 379.835 2261.09 392.928C2290.91 403.47 2317.74 400.958 2348.15 400.958C2348.16 458.41 2320.82 506.871 2258.56 511.75C2254.21 512.092 2250.88 515.7 2250.88 520.055V590.54C2250.88 595.319 2254.82 599.082 2259.6 598.859C2369.38 593.716 2435.17 507.291 2435.17 400.962C2464.18 400.962 2538.29 400.94 2567.3 400.94ZM2304.56 313.419C2280.65 313.419 2261.26 294.126 2261.09 270.262C2260.84 246.294 2280.33 226.656 2304.25 226.49C2328.34 226.24 2348.02 245.912 2348.02 269.954C2348.02 287.432 2348.16 291.711 2348.16 313.943C2333.2 313.943 2319.09 313.419 2304.56 313.419" fill="#2B2A29"/>
<path d="M20.7827 1.94415C9.72805 1.94415 0.782715 10.9041 0.782715 21.9454V187.108C0.782715 198.15 9.72805 207.11 20.7827 207.11H597.995C629.303 207.11 654.676 232.443 654.741 263.723V21.9454C654.741 10.9041 645.795 1.94415 634.743 1.94415H20.7827Z" fill="url(#paint3_linear)"/>
<path d="M145.605 146.39H98.0115V67.0299H143.778V81.5846H115.886V99.2392H141.842V113.739H115.886V131.891H145.605V146.39Z" fill="white"/>
<path d="M250.93 146.39H203.668V67.0299H221.543V131.891H250.93V146.39Z" fill="white"/>
<path d="M324.821 146.389H306.947V67.0294H324.821V146.389Z" fill="white"/>
<path d="M443.926 81.5853H421.291V146.391H403.362V81.5853H380.838V67.0306H443.926V81.5853Z" fill="white"/>
<path d="M547.536 146.39H499.943V67.0299H545.709V81.5846H517.817V99.2392H543.773V113.739H517.817V131.891H547.536V146.39Z" fill="white"/>
<defs>
<linearGradient id="paint0_linear" x1="2842.57" y1="328" x2="3497.64" y2="328" gradientUnits="userSpaceOnUse">
<stop stop-color="#B8913F"/>
<stop offset="0.188846" stop-color="#CBB951"/>
<stop offset="0.231183" stop-color="#CBB951"/>
<stop offset="0.451613" stop-color="#F6E27A"/>
<stop offset="0.537634" stop-color="#F6E27A"/>
<stop offset="0.768817" stop-color="#CBB951"/>
<stop offset="1" stop-color="#B8913F"/>
</linearGradient>
<linearGradient id="paint1_linear" x1="2975.42" y1="254.429" x2="3365.58" y2="254.429" gradientUnits="userSpaceOnUse">
<stop stop-color="#B8913F"/>
<stop offset="0.188846" stop-color="#CBB951"/>
<stop offset="0.231183" stop-color="#CBB951"/>
<stop offset="0.451613" stop-color="#F6E27A"/>
<stop offset="0.537634" stop-color="#F6E27A"/>
<stop offset="0.768817" stop-color="#CBB951"/>
<stop offset="1" stop-color="#B8913F"/>
</linearGradient>
<linearGradient id="paint2_linear" x1="3001.71" y1="462.219" x2="3214.88" y2="462.219" gradientUnits="userSpaceOnUse">
<stop stop-color="#B8913F"/>
<stop offset="0.188846" stop-color="#CBB951"/>
<stop offset="0.231183" stop-color="#CBB951"/>
<stop offset="0.451613" stop-color="#F6E27A"/>
<stop offset="0.537634" stop-color="#F6E27A"/>
<stop offset="0.768817" stop-color="#CBB951"/>
<stop offset="1" stop-color="#B8913F"/>
</linearGradient>
<linearGradient id="paint3_linear" x1="0.782595" y1="132.833" x2="654.742" y2="132.833" gradientUnits="userSpaceOnUse">
<stop stop-color="#B8913F"/>
<stop offset="0.188846" stop-color="#CBB951"/>
<stop offset="0.231183" stop-color="#CBB951"/>
<stop offset="0.451613" stop-color="#F6E27A"/>
<stop offset="0.537634" stop-color="#F6E27A"/>
<stop offset="0.768817" stop-color="#CBB951"/>
<stop offset="1" stop-color="#B8913F"/>
</linearGradient>
</defs>
</svg>
